<?xml version="1.0" encoding="UTF-8" standalone="no"?><!DOCTYPE svg PUBLIC "-//W3C//DTD SVG 1.1//EN" "http://www.w3.org/Graphics/SVG/1.1/DTD/svg11.dtd"><svg width="100%" height="100%" viewBox="0 0 1920 500" version="1.1" xmlns="http://www.w3.org/2000/svg" xmlns:xlink="http://www.w3.org/1999/xlink" xml:space="preserve" xmlns:serif="http://www.serif.com/" style="fill-rule:evenodd;clip-rule:evenodd;stroke-linejoin:round;stroke-miterlimit:1.41421;"><g><g><g opacity="0.399994"><path d="M0,412.117c145.809,-28.971 251.944,-86.584 497.549,-86.584c328.105,0 562.866,109.876 786.312,109.876c192.873,0 445.793,-85.331 636.137,-70.289l0,134.88l-1920,0l0,-87.883Z" style="fill:#6781c5;fill-rule:nonzero;"/></g></g><g><g opacity="0.399994"><path d="M1920,466.453c-167.922,0 -191.6,-69.988 -327.596,-69.988c-135.999,0 -158.63,64.344 -438.648,64.344c-280.018,0 -379.021,-86.774 -636.404,-86.774c-257.387,0 -262.529,81.131 -517.35,81.131l0,44.834l1920,0l0,-33.547Z" style="fill:#4187ff;fill-rule:nonzero;stroke:#606da6;stroke-width:1px;"/></g></g><g><g opacity="0.399994"><path d="M0,354.965c121.367,0 274.104,57.801 472.093,57.801c197.998,0 350.731,-44.429 642.064,-44.429c291.333,0 356.382,68.68 506.294,68.68c149.911,0 299.547,-41.026 299.547,-41.026l0,104.009l-1920,0l0,-145.035Z" style="fill:#528bde;fill-rule:nonzero;"/></g></g><path d="M0,472.64c237.112,-2.165 276.874,-27.36 520.167,-27.36c260.217,0 302.649,38.097 523.269,38.097c220.62,0 355.326,-32.452 451.49,-32.452c126.933,0 296.641,29.231 425.072,29.231l0,19.844l-1920,0l0,-27.36Z" style="fill:#053a7e;fill-rule:nonzero;"/><path d="M1920,445.281c-124.184,0 -181.248,-54.866 -454.342,-54.866c-273.089,0 -267.43,54.866 -485.224,54.866c-217.795,0 -308.308,-90.315 -526.099,-90.315c-217.79,0 -353.662,107.261 -454.333,107.261" style="fill:none;stroke:#1a4cbd;stroke-width:4.17px;stroke-linejoin:miter;stroke-miterlimit:10;"/><path d="M1920,347.939c-146.81,0 -175.096,89.077 -483.4,89.077c-308.3,0 -322.441,-41.024 -489.323,-41.024c-166.882,0 -237.591,76.649 -528.924,76.649c-230.663,0 -299.297,-87.934 -418.351,-87.934" style="fill:none;stroke:#002952;stroke-width:4.17px;stroke-linejoin:miter;stroke-miterlimit:10;"/></g></svg>