<?xml version="1.0" encoding="UTF-8" standalone="no"?><!DOCTYPE svg PUBLIC "-//W3C//DTD SVG 1.1//EN" "http://www.w3.org/Graphics/SVG/1.1/DTD/svg11.dtd"><svg width="100%" height="100%" viewBox="0 0 113 40" version="1.1" xmlns="http://www.w3.org/2000/svg" xmlns:xlink="http://www.w3.org/1999/xlink" xml:space="preserve" xmlns:serif="http://www.serif.com/" style="fill-rule:evenodd;clip-rule:evenodd;stroke-linejoin:round;stroke-miterlimit:1.41421;"><g><path d="M-3.03,23.385l-0.012,0c-0.52,0.002 -0.95,0.426 -0.958,0.946c0,0.482 0.441,0.897 0.952,0.897c0.547,0 1.007,-0.399 1.007,-0.897c0,-0.514 -0.46,-0.946 -0.989,-0.946Zm13.423,-10.607l0,12.268l-2.153,0l0,-1.192c-0.477,0.497 -0.968,0.856 -1.473,1.078c-0.506,0.221 -1.088,0.332 -1.749,0.332c-0.872,0.011 -1.732,-0.207 -2.494,-0.631c-0.737,-0.41 -1.349,-1.013 -1.77,-1.744c-0.432,-0.746 -0.655,-1.595 -0.646,-2.457c0,-0.903 0.216,-1.732 0.65,-2.489c0.42,-0.743 1.033,-1.36 1.774,-1.784c0.75,-0.433 1.602,-0.657 2.468,-0.649c0.615,0 1.191,0.103 1.727,0.308c0.538,0.205 0.979,0.487 1.323,0.843l0,-3.883l2.343,0Zm-5.1,4.759c-0.793,0 -1.46,0.27 -2.003,0.812c-0.542,0.54 -0.813,1.21 -0.813,2.01c0,0.806 0.282,1.487 0.848,2.044c0.566,0.557 1.253,0.834 2.063,0.834c0.793,0 1.464,-0.272 2.011,-0.819c0.549,-0.545 0.823,-1.213 0.823,-2.002c0,-0.832 -0.275,-1.521 -0.827,-2.063c-0.551,-0.544 -1.252,-0.816 -2.102,-0.816Zm17.3,-1.695l0,9.204l-2.145,0l0,-1.192c-0.472,0.502 -0.958,0.864 -1.46,1.082c-0.503,0.219 -1.099,0.328 -1.788,0.328c-0.942,0 -1.788,-0.204 -2.537,-0.612c-0.734,-0.393 -1.343,-0.985 -1.757,-1.707c-0.423,-0.729 -0.634,-1.551 -0.634,-2.465c0,-0.923 0.213,-1.755 0.638,-2.493c0.418,-0.731 1.033,-1.331 1.774,-1.731c0.759,-0.416 1.614,-0.624 2.568,-0.624c0.706,0 1.314,0.115 1.826,0.345c0.511,0.23 0.968,0.595 1.37,1.098l0,-1.233l2.145,0Zm-5.134,1.817c-0.816,0 -1.49,0.27 -2.021,0.811c-0.531,0.54 -0.796,1.227 -0.796,2.059c0,0.805 0.268,1.459 0.805,1.959c0.536,0.5 1.233,0.749 2.088,0.749c0.85,0 1.536,-0.254 2.055,-0.762c0.52,-0.508 0.78,-1.173 0.78,-1.995c0,-0.832 -0.271,-1.51 -0.814,-2.034c-0.542,-0.525 -1.242,-0.787 -2.097,-0.787Zm8.35,7.387l0,-7.192l-1.146,0l0,-2.012l1.146,0l0,-3.064l2.343,0l0,3.064l1.413,0l0,2.012l-1.413,0l0,7.192l-2.343,0Zm15.603,-9.204l0,9.204l-2.145,0l0,-1.192c-0.471,0.502 -0.957,0.864 -1.459,1.082c-0.502,0.219 -1.099,0.328 -1.788,0.328c-0.941,0 -1.787,-0.204 -2.537,-0.612c-0.734,-0.393 -1.343,-0.985 -1.757,-1.707c-0.422,-0.729 -0.633,-1.551 -0.633,-2.465c0,-0.923 0.212,-1.755 0.638,-2.493c0.418,-0.732 1.032,-1.331 1.774,-1.731c0.758,-0.416 1.613,-0.624 2.567,-0.624c0.707,0 1.315,0.115 1.826,0.345c0.511,0.23 0.968,0.595 1.369,1.098l0,-1.233l2.145,0Zm-5.133,1.817c-0.816,0 -1.489,0.27 -2.02,0.811c-0.531,0.54 -0.797,1.227 -0.797,2.059c0,0.805 0.268,1.459 0.805,1.959c0.537,0.5 1.233,0.749 2.089,0.749c0.85,0 1.534,-0.254 2.054,-0.762c0.52,-0.508 0.78,-1.173 0.78,-1.995c0,-0.832 -0.272,-1.51 -0.814,-2.034c-0.542,-0.525 -1.241,-0.787 -2.097,-0.787Zm9.177,5.726l-0.012,0c-0.52,0.002 -0.949,0.426 -0.958,0.946c0,0.482 0.441,0.897 0.953,0.897c0.546,0 1.005,-0.399 1.005,-0.897c0,-0.514 -0.459,-0.946 -0.988,-0.946Zm11.59,-7.543l2.239,0l0,7.46c0,0.914 -0.084,1.672 -0.254,2.275c-0.152,0.571 -0.434,1.099 -0.823,1.544c-0.929,1.066 -2.26,1.598 -3.987,1.598c-1.195,0 -2.231,-0.257 -3.11,-0.77c-0.857,-0.489 -1.529,-1.247 -1.912,-2.157l2.661,0c0.345,0.356 0.703,0.609 1.077,0.758c0.373,0.148 0.832,0.222 1.378,0.222c0.872,0 1.536,-0.243 1.99,-0.729c0.454,-0.487 0.7,-1.224 0.741,-2.214c-0.46,0.509 -0.938,0.875 -1.434,1.099c-0.497,0.224 -1.09,0.336 -1.78,0.336c-0.918,0 -1.744,-0.208 -2.476,-0.624c-0.723,-0.407 -1.316,-1.01 -1.71,-1.739c-0.408,-0.744 -0.611,-1.582 -0.611,-2.518c0,-1.361 0.457,-2.494 1.37,-3.397c0.913,-0.902 2.061,-1.354 3.445,-1.354c1.401,0 2.466,0.46 3.196,1.378l0,-1.168Zm-2.963,1.817c-0.805,0 -1.452,0.258 -1.943,0.775c-0.491,0.515 -0.736,1.198 -0.736,2.046c0,0.839 0.248,1.508 0.745,2.008c0.496,0.5 1.164,0.749 2.002,0.749c0.85,0 1.528,-0.252 2.033,-0.758c0.506,-0.505 0.758,-1.182 0.758,-2.031c0,-0.832 -0.263,-1.505 -0.788,-2.019c-0.525,-0.513 -1.216,-0.77 -2.071,-0.77Zm12.769,-2.027c0.93,0 1.792,0.217 2.585,0.648c0.77,0.413 1.418,1.021 1.878,1.764c0.453,0.726 0.692,1.565 0.688,2.421c0,0.864 -0.231,1.665 -0.694,2.404c-0.464,0.74 -1.117,1.344 -1.89,1.751c-0.799,0.43 -1.694,0.651 -2.601,0.644c-0.911,0.008 -1.811,-0.214 -2.614,-0.644c-0.776,-0.406 -1.432,-1.01 -1.9,-1.751c-0.459,-0.718 -0.701,-1.552 -0.698,-2.404c0,-0.66 0.137,-1.288 0.409,-1.886c0.263,-0.583 0.641,-1.107 1.112,-1.54c0.49,-0.443 1.058,-0.791 1.675,-1.026c0.653,-0.254 1.349,-0.384 2.05,-0.381Zm-0.095,2.027c-0.757,0 -1.411,0.275 -1.959,0.823c-0.534,0.513 -0.832,1.226 -0.823,1.966c0,0.768 0.276,1.425 0.827,1.97c0.523,0.534 1.243,0.831 1.99,0.819c0.781,0 1.45,-0.271 2.007,-0.815c0.557,-0.542 0.835,-1.195 0.835,-1.957c0,-0.79 -0.278,-1.455 -0.835,-1.995c-0.557,-0.541 -1.238,-0.811 -2.042,-0.811Zm16.224,-1.817l0,9.204l-2.17,0l0,-0.884c-0.448,0.405 -0.881,0.69 -1.297,0.856c-0.416,0.164 -0.917,0.246 -1.503,0.246c-0.661,0 -1.252,-0.125 -1.775,-0.377c-0.509,-0.24 -0.946,-0.61 -1.266,-1.073c-0.253,-0.374 -0.434,-0.793 -0.534,-1.233c-0.104,-0.449 -0.155,-1.049 -0.155,-1.801l0,-4.938l2.352,0l0,4.501c0,0.637 0.037,1.136 0.112,1.495c0.074,0.361 0.2,0.642 0.378,0.848c0.339,0.368 0.793,0.551 1.362,0.551c0.376,0.007 0.748,-0.072 1.089,-0.231c0.303,-0.139 0.556,-0.367 0.729,-0.652c0.126,-0.206 0.213,-0.472 0.262,-0.799c0.049,-0.327 0.073,-0.785 0.073,-1.374l0,-4.339l2.343,0Zm5.818,9.204l-3.936,-9.204l2.61,0l2.257,6.098l2.222,-6.098l2.654,0l-3.937,9.204l-1.87,0Zm7.042,-1.66c-0.498,0 -0.912,0.414 -0.912,0.946c0,0.482 0.414,0.896 0.895,0.896c0.515,0 0.947,-0.398 0.947,-0.896c-0.006,-0.511 -0.42,-0.931 -0.93,-0.946Z" style="fill:#373c42;fill-rule:nonzero;"/><path d="M98.956,16.537l1.928,0l-1.95,9.023c-0.508,2.33 -1.207,3.495 -2.118,3.495c-0.254,0 -0.423,-0.148 -0.423,-0.36c0,-0.064 0.021,-0.106 0.085,-0.212c0.07,-0.107 0.107,-0.232 0.105,-0.36c-0.005,-0.453 -0.378,-0.824 -0.831,-0.826l-0.016,0c-0.445,0 -0.783,0.403 -0.783,0.911c0,0.72 0.741,1.292 1.673,1.292c1.927,0 3.431,-2.118 4.363,-6.079l1.589,-6.884l2.351,0l0.127,-0.679l-2.309,0c0.636,-3.388 1.462,-4.892 2.648,-4.892c0.296,0 0.466,0.105 0.466,0.275c0,0.043 -0.022,0.106 -0.085,0.212c-0.09,0.13 -0.135,0.287 -0.127,0.445c0,0.508 0.318,0.847 0.784,0.847c0.487,0 0.911,-0.402 0.911,-0.868c0,-0.784 -0.784,-1.377 -1.843,-1.377c-1.039,0 -1.885,0.466 -2.669,1.462c-0.636,0.847 -1.08,1.821 -1.737,3.896l-1.991,0l-0.148,0.679Zm7.477,8.515c1.165,-3.707 1.524,-4.575 2.5,-6.207c0.741,-1.207 1.334,-1.863 1.693,-1.863c0.149,0 0.255,0.085 0.361,0.296c0.169,0.36 0.339,0.466 0.763,0.466c0.635,0 0.994,-0.381 0.994,-1.059c0,-0.677 -0.401,-1.102 -0.994,-1.102c-0.488,0 -1.081,0.318 -1.632,0.911c-0.889,0.89 -1.779,2.182 -2.118,3.009l-0.318,0.783l1.186,-4.66l-0.063,-0.043c-1.546,0.275 -1.779,0.318 -3.325,0.573l0,0.36c0.466,-0.085 0.551,-0.107 0.72,-0.107c0.465,0 0.741,0.212 0.741,0.593c0,0.276 -0.169,1.144 -0.339,1.78l-1.8,6.27l1.631,0Z" style="fill:#373c42;fill-rule:nonzero;"/></g></svg>